<?xml version="1.0" encoding="utf-8"?>
<svg version="1.1" id="Layer_1" xmlns="http://www.w3.org/2000/svg" xmlns:xlink="http://www.w3.org/1999/xlink" x="0px" y="0px" width="400" height="400" class="container"
	 viewBox="0 0 400 400" style="enable-background:new 0 0 400 400;" xml:space="preserve">
<style type="text/css">
	.container{font-size:28px; font-family: monospace, monospace; font-weight: 500; letter-spacing: 2px;}
	.whitetext{fill:#ffffff; text-anchor:middle;}
	.blacktext{fill:#000000; text-anchor:middle;}
	.pinktext{fill:#FA0F95; text-anchor:middle;}
	.whiteheart{fill:#ffffff;}
	.whiteheartoutline{fill:#ffffff; stroke: #000000; stroke-width: 5px;}
	.black{fill:#000000;}
	.pink{fill:#FFC9DF;}
	.blue{fill:#A2E2FF;}
	.orange{fill:#FFCC99;}
	.green{fill:#A4FFCA;}
	.purple{fill:#DAB5FF;}
	.yellow{fill:#FFF6AE;}
	.background{fill:#FFDBDB;}

</style>
<defs>
	<g id="heart">
    	<path d="M79.2-43C71.2-78.4,30.8-84.9,5-60.9c-2.5,2.3-6.4,2.1-8.8-0.3c-25-25.9-75.1-15-76.7,28.2C-82.6,22.3-14,75.2,1.5,75.1
	C17.3,75.1,91.3,10.7,79.2-43z"/>
	</g>
    <radialGradient id="rainbow" cx="58%" cy="50%" fr="0%" r="300%" spreadMethod="repeat">
      <stop offset="0%" style="stop-color:#ffb9b9" />
      <stop offset="30%" style="stop-color:#fff7ad" />
      <stop offset="50%" style="stop-color:#97fff3" />
      <stop offset="80%" style="stop-color:#cfbcff" />
      <stop offset="100%" style="stop-color:#ffb9b9" />
    </radialGradient>
  </defs>

<rect class="background" width="400" height="400"/>

<animate xlink:href="#rainbow"
	  attributeName="fr"
	  dur="20s"
	  values="0%;300%"
	  repeatCount="indefinite"
/>

<animate xlink:href="#rainbow"
	  attributeName="r"
	  dur="20s"
	  values="300%;600%"
	  repeatCount="indefinite"
/>

<g transform="translate(93,96) rotate(10)">
	<use xlink:href="#heart" class="whiteheartoutline"/>
	<text class="blacktext"><tspan x="0" y="-10">0x7A43</tspan></text>
</g>

<g transform="translate(236,209) rotate(-10)">
	<use xlink:href="#heart" class="whiteheartoutline"/>
	<text class="blacktext"><tspan x="0" y="-10">0xCC81</tspan></text>
</g>

<g transform="translate(327,62) rotate(-16)">
	<use xlink:href="#heart" class="black"/>
	<text class="whitetext"><tspan x="0" y="-15">2THE</tspan><tspan x="0" y="20">MOON</tspan></text>
</g>

<g transform="translate(102,325) rotate(7)">
	<use xlink:href="#heart" class="black"/>
	<text class="whitetext"><tspan x="0" y="-15">BULLISH</tspan><tspan x="0" y="20">4LOVE</tspan></text>
</g>

<g transform="translate(340,344) rotate(-22)">
	<use xlink:href="#heart" class="black"/>
	<text class="whitetext"><tspan x="0" y="-15">BE</tspan><tspan x="0" y="20">MINE</tspan></text>
</g>

<g transform="translate(-40,210) rotate(27)">
	<use xlink:href="#heart" class="black"/>
</g>

<g transform="translate(460,190) rotate(-22)">
	<use xlink:href="#heart" class="black"/>
</g>

</svg>
